<svg width="500" height="500" viewBox="0 0 14 14" aria-hidden="true" xmlns="http://www.w3.org/2000/svg">
  <defs>
    <linearGradient id="a" x1="100%" y1="0%" x2="0%" y2="100%">
      <stop offset="0%" style="stop-color:#e02c5d;stop-opacity:1"/>
      <stop offset="100%" style="stop-color:#292358;stop-opacity:1"/>
    </linearGradient>
  </defs>
  <path d="M12.4 1H1.6a.6.6 0 0 0-.6.6v10.8a.6.6 0 0 0 .6.6h10.8a.6.6 0 0 0 .6-.6V1.6a.6.6 0 0 0-.6-.6m-7 8.665H4.336v-5.33H5.4v5.33zm4.268 0H6.467V8.6h3.2v1.066zm0-2.132H6.467V6.467h3.2v1.066zm0-2.135H6.467V4.332h3.2v1.066z" fill="url(#a)"/>
</svg>