<svg width="500" height="500" viewBox="0 0 24 24" xmlns="http://www.w3.org/2000/svg">
  <g fill="none">
    <path d="M12.05 11.95 12 21.8a2.5 2.5 0 0 1-1.28-.39l-6.29-3.63a2.5 2.5 0 0 1-1.25-2.17V8.35A2.5 2.5 0 0 1 3.6 7l8.45 5" fill="#012c40"/>
    <path d="m11.968 12.015 8.539-4.911a2.5 2.5 0 0 1 .307 1.302l.026 7.263a2.5 2.5 0 0 1-1.246 2.172l-6.275 3.651a2.5 2.5 0 0 1-1.378.317l.07-9.819" fill="#4889f4"/>
    <path d="M12.001 12.032 3.495 7.065a2.5 2.5 0 0 1 .978-.914l6.288-3.633a2.5 2.5 0 0 1 2.504.002l6.288 3.629a2.5 2.5 0 0 1 .96 1.038l-8.555 4.82" fill="#43dd88"/>
    <path d="M11.25 6.342a1.5 1.5 0 0 1 1.5 0l3.774 2.178a1.5 1.5 0 0 1 .75 1.302v4.362a1.5 1.5 0 0 1-.75 1.302l-3.774 2.178a1.5 1.5 0 0 1-1.5 0l-3.774-2.178a1.5 1.5 0 0 1-.75-1.302V9.822a1.5 1.5 0 0 1 .75-1.302l3.774-2.178z" fill="#00000050" fill-rule="evenodd"/>
    <path d="M11.5 8.228a1 1 0 0 1 1 0l2.516 1.452a1 1 0 0 1 .5.868v2.908a1 1 0 0 1-.5.868L12.5 15.776a1 1 0 0 1-1 0l-2.516-1.452a1 1 0 0 1-.5-.868v-2.908a1 1 0 0 1 .5-.868L11.5 8.228z" fill="#fff" fill-rule="evenodd"/>
  </g>
</svg>