<svg xmlns="http://www.w3.org/2000/svg" xmlns:xlink="http://www.w3.org/1999/xlink" viewBox="0,0,256,256" width="128px" height="128px" fill-rule="nonzero"><defs><linearGradient x1="30.35" y1="8.326" x2="30.35" y2="53.524" gradientUnits="userSpaceOnUse" id="color-1"><stop offset="0" stop-color="#ff3d3d" stop-opacity="0.36863"></stop><stop offset="0.699" stop-color="#ffabab" stop-opacity="0.05882"></stop></linearGradient><linearGradient x1="42.475" y1="23.517" x2="42.475" y2="52.648" gradientUnits="userSpaceOnUse" id="color-2"><stop offset="0" stop-color="#ff3d3d" stop-opacity="0.36863"></stop><stop offset="0.699" stop-color="#ffabab" stop-opacity="0.05882"></stop></linearGradient><linearGradient x1="31.725" y1="5.554" x2="31.725" y2="61.208" gradientUnits="userSpaceOnUse" id="color-3"><stop offset="0" stop-color="#ff2525"></stop><stop offset="1" stop-color="#ff7878"></stop></linearGradient></defs><g fill="none" fill-rule="nonzero" stroke="none" stroke-width="1" stroke-linecap="butt" stroke-linejoin="miter" stroke-miterlimit="10" stroke-dasharray="" stroke-dashoffset="0" font-family="none" font-weight="none" font-size="none" text-anchor="none" style="mix-blend-mode: normal"><g transform="scale(4,4)"><path d="M47.2,20.38l-14.8,8.88c-2.1,1.26 -3.4,3.56 -3.4,6v16.7l-14.5,-8.37c-0.62,-0.35 -1,-1.02 -1,-1.73v-16.42l9.94,6.12c0.48,0.29 1.02,0.44 1.56,0.44c1.05,0 2.03,-0.56 2.57,-1.46c0.85,-1.41 0.39,-3.26 -1.03,-4.11l-10.05,-6.19l14.23,-8.21c0.31,-0.18 0.65,-0.27 1,-0.27c0.36,0 0.7,0.09 1,0.26z" fill="url(#color-1)"></path><path d="M35.49,34.41c-0.3,0.17 -0.49,0.51 -0.49,0.85v16.38l13.95,-8.05c0.62,-0.35 1,-1.02 1,-1.73v-16.13zM35.49,34.41c-0.3,0.17 -0.49,0.51 -0.49,0.85v16.38l13.95,-8.05c0.62,-0.35 1,-1.02 1,-1.73v-16.13zM35,35.26v16.38l13.95,-8.05c0.62,-0.35 1,-1.02 1,-1.73v-16.13l-14.46,8.68c-0.3,0.17 -0.49,0.51 -0.49,0.85z" fill="url(#color-2)"></path><path d="M50.95,17.93l-16.23,-9.37c-0.92,-0.53 -1.96,-0.8 -3,-0.8c-1.03,0 -2.07,0.27 -3,0.8l-16.22,9.37c-1.85,1.07 -3,3.06 -3,5.19v18.74c0,2.14 1.15,4.13 3,5.2l16.22,9.36c0.93,0.54 1.97,0.8 3.01,0.8c1.03,0 2.07,-0.26 2.99,-0.8l16.23,-9.36c1.85,-1.07 3,-3.06 3,-5.2v-18.74c0,-2.13 -1.15,-4.12 -3,-5.19zM51.95,41.86c0,1.42 -0.77,2.75 -2,3.46l-16.23,9.37c-0.23,0.13 -0.47,0.23 -0.72,0.32v-19.75c0,-1.04 0.56,-2.03 1.46,-2.57l17.39,-10.43c0.06,0.28 0.1,0.57 0.1,0.86zM31,55.15c-0.44,-0.08 -0.88,-0.23 -1.28,-0.46l-16.22,-9.37c-1.23,-0.71 -2,-2.04 -2,-3.46v-18.74c0,-0.39 0.06,-0.78 0.18,-1.15l12.81,7.89c0.16,0.09 0.33,0.14 0.51,0.14c0.34,0 0.67,-0.17 0.86,-0.49c0.28,-0.47 0.13,-1.08 -0.35,-1.37l-12.8,-7.88c0.24,-0.23 0.5,-0.43 0.79,-0.6l16.22,-9.37c0.62,-0.35 1.31,-0.53 2,-0.53c0.7,0 1.39,0.18 2,0.53l16.23,9.37c0.38,0.22 0.7,0.5 0.98,0.81l-17.5,10.51c-1.5,0.9 -2.43,2.54 -2.43,4.28z" fill="url(#color-3)"></path></g></g></svg>