<svg xmlns="http://www.w3.org/2000/svg" xmlns:xlink="http://www.w3.org/1999/xlink" viewBox="0,0,256,256" width="128px" height="128px" fill-rule="nonzero"><defs><linearGradient x1="14.5" y1="46.896" x2="14.5" y2="52.009" gradientUnits="userSpaceOnUse" id="color-1"><stop offset="0" stop-color="#ff3d3d" stop-opacity="0.5098"></stop><stop offset="1" stop-color="#ff0000" stop-opacity="0.98039"></stop></linearGradient><linearGradient x1="50.651" y1="13.359" x2="9.186" y2="54.824" gradientUnits="userSpaceOnUse" id="color-2"><stop offset="0" stop-color="#ff2525"></stop><stop offset="1" stop-color="#ff7a7a"></stop></linearGradient></defs><g fill="none" fill-rule="nonzero" stroke="none" stroke-width="1" stroke-linecap="butt" stroke-linejoin="miter" stroke-miterlimit="10" stroke-dasharray="" stroke-dashoffset="0" font-family="none" font-weight="none" font-size="none" text-anchor="none" style="mix-blend-mode: normal"><g transform="scale(4,4)"><path d="M14.5,47c-1.38071,0 -2.5,1.11929 -2.5,2.5c0,1.38071 1.11929,2.5 2.5,2.5c1.38071,0 2.5,-1.11929 2.5,-2.5c0,-1.38071 -1.11929,-2.5 -2.5,-2.5z" fill="url(#color-1)"></path><path d="M39.959,9v0c2.007,0 3.884,0.698 5.475,2.028l-6.522,6.517c-0.588,0.587 -0.912,1.368 -0.912,2.2c0,0.831 0.324,1.613 0.911,2.2l3.145,3.144c0.588,0.587 1.369,0.911 2.2,0.911c0.831,0 1.613,-0.324 2.2,-0.911l6.523,-6.518c1.422,1.702 2.115,3.731 2.011,5.917c-0.12,2.511 -1.326,5.034 -3.397,7.104c-2.197,2.198 -4.869,3.408 -7.523,3.408c-1.978,0 -3.855,-0.678 -5.426,-1.96l-1.499,-1.223l-1.272,1.458l-17.336,19.869c-1.001,1.144 -2.389,1.802 -3.909,1.853c-0.058,0.002 -0.117,0.003 -0.176,0.003c-1.437,0 -2.843,-0.582 -3.858,-1.597c-1.061,-1.061 -1.641,-2.529 -1.591,-4.029c0.05,-1.5 0.726,-2.927 1.853,-3.913l19.873,-17.33l1.453,-1.267l-1.213,-1.499c-2.354,-2.909 -2.658,-6.979 -0.757,-10.129c2.084,-3.456 5.329,-5.763 8.68,-6.172c0.356,-0.042 0.715,-0.064 1.067,-0.064M39.959,7c-0.433,0 -0.869,0.027 -1.308,0.08c-3.956,0.483 -7.752,3.145 -10.151,7.124c-2.366,3.92 -1.958,8.87 0.915,12.42l-19.873,17.329c-1.544,1.351 -2.469,3.302 -2.538,5.354c-0.068,2.051 0.725,4.059 2.176,5.51c1.395,1.395 3.306,2.183 5.272,2.183c0.081,0 0.161,-0.001 0.242,-0.004c2.079,-0.07 3.978,-0.969 5.348,-2.535l17.337,-19.871c1.975,1.611 4.303,2.41 6.69,2.41c3.093,0 6.286,-1.341 8.938,-3.992c5.011,-5.01 5.341,-11.951 0.786,-16.505l-0.786,-0.786l-7.965,7.958c-0.217,0.217 -0.501,0.325 -0.786,0.325c-0.285,0 -0.569,-0.108 -0.786,-0.325l-3.145,-3.144c-0.434,-0.434 -0.434,-1.138 0,-1.572l7.965,-7.958l-0.786,-0.786c-2.099,-2.099 -4.74,-3.215 -7.545,-3.215zM30.707,34.707l-1.414,-1.414l-11,11l1.414,1.414z" fill="url(#color-2)"></path></g></g></svg>